<svg width="40" height="40" viewBox="0 0 40 40" fill="none" xmlns="http://www.w3.org/2000/svg">
<circle cx="20" cy="20" r="19.5" fill="#E6E7EB" stroke="white"/>
<g clip-path="url(#clip0_3175_21732)">
<path d="M8.0166 31.9997C7.99993 31.6662 7.99437 31.3327 8.01104 30.9992C8.12221 30.9659 8.23337 30.9437 8.35009 30.927C8.68358 30.8714 9.01707 30.788 9.33944 30.6935C9.42837 30.6657 9.5173 30.6324 9.60623 30.5991C10.0342 30.4323 10.4122 30.1544 10.7012 29.7987C10.9013 29.5486 11.0736 29.2762 11.2236 28.9928C11.4349 28.6037 11.6183 28.1979 11.785 27.7866C12.1185 26.9529 12.452 26.1248 12.7799 25.291C13.9138 22.423 15.0476 19.555 16.1815 16.6871C17.2542 13.958 18.3103 11.229 19.3441 8.48326C19.3663 8.42767 19.3885 8.37209 19.4108 8.31651C19.7943 8.21091 20.1667 8.09975 20.5557 7.99414C20.578 8.04972 20.6002 8.09975 20.6169 8.14977C21.056 9.37256 21.4951 10.5953 21.9286 11.8237C23.4237 15.9978 24.9189 20.1664 26.4529 24.3239C26.8753 25.4578 27.2978 26.5972 27.7257 27.7311C27.8925 28.1924 28.0926 28.6481 28.3204 29.0817C28.4205 29.2707 28.5261 29.4485 28.6428 29.6264C28.9985 30.1822 29.5488 30.5768 30.188 30.7436C30.5326 30.8325 30.8772 30.9047 31.2329 30.9492L31.483 30.9881C31.5164 31.0993 31.4997 31.2049 31.4997 31.3105C31.4997 31.4161 31.4997 31.5384 31.4997 31.6495C31.5053 31.7607 31.4997 31.8663 31.4941 31.9775C31.4608 31.983 31.433 31.9886 31.3997 31.9941C31.3607 31.9941 31.3218 31.9941 31.2829 31.9941H22.6067C22.5956 31.9775 22.59 31.9552 22.5845 31.933C22.5845 31.6329 22.5845 31.3327 22.5845 31.0326C22.5845 31.0215 22.59 31.0048 22.5956 30.9937C22.6678 30.9714 22.7401 30.9603 22.8179 30.9492C23.1792 30.8992 23.5349 30.8325 23.8906 30.738C24.0296 30.6991 24.1741 30.6491 24.3075 30.5935C24.3742 30.5657 24.4409 30.5324 24.5076 30.4934C24.8577 30.2989 24.9967 29.9932 24.9633 29.6041C24.9467 29.4263 24.9189 29.254 24.8688 29.0817C24.7966 28.8149 24.7021 28.5537 24.6132 28.298C22.7901 23.2123 20.9893 18.1211 19.2051 13.0187C19.1884 12.9631 19.1773 12.902 19.1217 12.8519C19.1051 12.8631 19.0773 12.8742 19.0662 12.8853C19.0495 12.9131 19.0384 12.9409 19.0328 12.9687C18.1602 15.4754 17.232 17.9654 16.3093 20.4499C15.6257 22.2896 14.942 24.1349 14.3084 25.9914C14.0527 26.7362 13.8082 27.4865 13.5692 28.2368C13.4747 28.5259 13.408 28.8204 13.3635 29.115C13.3302 29.3151 13.3246 29.5152 13.3468 29.7209C13.3746 29.9821 13.5136 30.2211 13.7304 30.3767C13.8693 30.4768 14.0249 30.5546 14.1917 30.6102C14.4529 30.7047 14.7197 30.7714 14.9921 30.8158C15.2922 30.8714 15.5923 30.9159 15.898 30.9603C15.9203 30.9659 15.9369 30.9659 15.9647 30.9714C15.9703 30.9937 15.9758 31.0159 15.9814 31.0381C15.9814 31.3272 15.9814 31.6217 15.9814 31.9108C15.9814 31.9274 15.9758 31.9441 15.9703 31.9608C15.9425 31.9664 15.9147 31.9719 15.8869 31.9719C15.848 31.9719 15.8091 31.9719 15.7702 31.9719L8.0166 31.9997Z" fill="black"/>
</g>
<defs>
<clipPath id="clip0_3175_21732">
<rect width="23.4998" height="24" fill="white" transform="translate(8 8)"/>
</clipPath>
</defs>
</svg>
