<svg width="80" height="80" viewBox="0 0 80 80" fill="none" xmlns="http://www.w3.org/2000/svg">
<path d="M5.15434 45.4613C3.76192 42.7327 2.97656 39.6427 2.97656 36.3675C2.97656 25.3025 11.9465 16.3326 23.0114 16.3326C23.2304 16.3326 23.4486 16.3361 23.6658 16.3431L24.4444 16.368V15.5891V4.44478L55.5555 24.4448L24.4444 44.4448V34.0751V33.2893L23.6593 33.3213C15.5043 33.6537 8.51998 38.5182 5.15434 45.4613Z" fill="#1732F5" stroke="#1732F5" stroke-width="1.50878"/>
<path d="M25.9107 55.5558L57.0234 36.8882V45.814V46.6572L57.8614 46.5638C65.3585 45.728 71.6912 41.0467 74.8456 34.5393C76.238 37.2678 77.0234 40.3579 77.0234 43.6331C77.0234 54.4432 68.4616 63.254 57.7497 63.6538L57.0234 63.6809V64.4077V74.2234L25.9107 55.5558Z" fill="#5065FF" stroke="#5065FF" stroke-width="1.50878"/>
</svg>
