<svg width="80" height="80" viewBox="0 0 80 80" fill="none" xmlns="http://www.w3.org/2000/svg">
<path d="M20.1711 74.0174L13.7283 78.0441C12.8578 78.5882 11.7165 78.3826 11.0906 77.5689L3.43185 67.6125C2.76284 66.7428 2.92208 65.496 3.7882 64.8223L18.0106 53.7605C19.4109 52.6714 21.1342 52.0801 22.9081 52.0801H35.1689C37.0731 52.0801 38.9146 52.7613 40.3604 54.0005L45.0999 58.063H59.06L71.6266 53.5749C72.5418 53.248 73.5229 53.1491 74.485 53.2865L74.714 53.3192C76.5408 53.5802 77.0638 55.9688 75.5131 56.9693L55.9999 69.5584C51.4881 72.4692 46.2328 74.0174 40.8636 74.0174H20.1711Z" fill="#5065FF"/>
<path fill-rule="evenodd" clip-rule="evenodd" d="M52.3191 57.564H54.4427C56.5639 57.564 58.0618 59.6421 57.391 61.6544C56.8158 63.3801 55.2009 64.544 53.3819 64.544H34.1311V63.5469H53.3819C54.7717 63.5469 56.0055 62.6576 56.445 61.3391C56.9005 59.9725 55.8833 58.5611 54.4427 58.5611H52.3191V57.564Z" fill="#1732F5"/>
<path fill-rule="evenodd" clip-rule="evenodd" d="M44.1026 25.1566C48.5083 25.1566 52.0798 21.243 52.0798 15.1851C52.0798 7.133 44.1026 2.22217 44.1026 2.22217C44.1026 2.22217 36.1254 7.133 36.1254 15.1851C36.1254 21.243 39.6969 25.1566 44.1026 25.1566ZM44.9286 35.4404C46.4862 36.998 49.1928 36.8169 51.4277 34.582C54.3983 31.6114 53.3897 26.9793 53.3897 26.9793C53.3897 26.9793 48.7576 25.9706 45.787 28.9413C44.9974 29.7308 44.4642 30.5793 44.1734 31.4151C43.8826 30.5793 43.3494 29.7308 42.5598 28.9413C39.5892 25.9706 34.9571 26.9793 34.9571 26.9793C34.9571 26.9793 33.9484 31.6114 36.9191 34.582C39.154 36.8169 41.8605 36.998 43.4182 35.4404C43.7497 35.1089 44.0024 34.7253 44.1734 34.3054C44.3444 34.7253 44.5971 35.1089 44.9286 35.4404ZM34.4072 43.6105C36.5095 41.1656 39.6267 39.6161 43.1054 39.6161C48.2223 39.6161 52.5553 42.9671 54.0318 47.5934L54.0741 47.5933C57.6537 47.5933 60.5556 50.4951 60.5556 54.0748C60.5556 55.7345 59.9311 57.2495 58.9051 58.3959L58.7564 58.5619H44.9153L40.0357 54.3795C38.6803 53.2177 36.9539 52.579 35.1687 52.579H22.71C22.6458 52.579 22.5817 52.5799 22.5176 52.5815L21.7936 52.6001L22.0346 51.9172C22.9232 49.3995 25.3233 47.594 28.1465 47.5933C29.123 45.2516 31.4341 43.6047 34.1311 43.6047C34.2236 43.6047 34.3156 43.6066 34.4072 43.6105Z" fill="#1732F5"/>
<path d="M44.1026 9.70068C44.3779 9.70068 44.6011 9.9239 44.6011 10.1993V19.1736L47.792 16.7805C48.0123 16.6153 48.3248 16.6599 48.49 16.8802C48.6552 17.1005 48.6106 17.413 48.3903 17.5782L44.6011 20.4201V41.1109C44.6011 41.3863 44.3779 41.6095 44.1026 41.6095C43.8272 41.6095 43.604 41.3863 43.604 41.1109V16.4315L39.8148 13.5896C39.5945 13.4244 39.5499 13.1119 39.7151 12.8916C39.8803 12.6713 40.1928 12.6266 40.4131 12.7919L43.604 15.185V10.1993C43.604 9.9239 43.8272 9.70068 44.1026 9.70068Z" fill="#5065FF"/>
</svg>
