<svg width="80" height="80" viewBox="0 0 80 80" fill="none" xmlns="http://www.w3.org/2000/svg">
<path d="M30.3704 6.6665H49.6297L56.0494 13.0863H23.9507L30.3704 6.6665Z" fill="#1732F5"/>
<path d="M22.3457 11.4813L30.3704 6.6665V32.3455H22.3457V11.4813Z" fill="#5065FF"/>
<path d="M57.6543 11.4813L49.6296 6.6665V32.3455H57.6543V11.4813Z" fill="#5065FF"/>
<rect x="11.1111" y="22.7158" width="57.7778" height="52.963" fill="#5065FF"/>
<path d="M51.0217 45.7279C50.2025 43.3454 48.7977 41.1244 47.2949 39.2266L41.8251 41.6522V49.8062L51.0217 45.7279Z" fill="#1732F5"/>
<path d="M46.049 37.7442C44.3853 35.8738 42.7642 34.4436 41.8251 33.6655L41.8251 39.6173L46.049 37.7442Z" fill="#1732F5"/>
<path d="M39.9263 33.8753C38.9504 34.6996 37.4309 36.0727 35.8824 37.824L39.9263 39.6173L39.9263 33.8753Z" fill="#1732F5"/>
<path d="M34.6422 39.309C33.1437 41.2143 31.7501 43.4399 30.9476 45.8246L39.9263 49.8062V41.6522L34.6422 39.309Z" fill="#1732F5"/>
<path d="M30.4633 47.6447C30.3194 48.3869 30.2407 49.14 30.2407 49.8995C30.2407 55.8091 34.1611 61.6479 39.9263 62.2996V51.8411L30.4633 47.6447Z" fill="#1732F5"/>
<path d="M40.9419 62.3596C40.9616 62.3597 40.9813 62.3598 41.0011 62.3598C47.3484 62.3598 51.7614 56.1694 51.7614 49.8995C51.7614 49.1051 51.6754 48.3178 51.5186 47.5425L41.8251 51.8411V62.3221C41.5343 62.3454 41.2398 62.358 40.9419 62.3596Z" fill="#1732F5"/>
</svg>
