<svg width="24" height="24" viewBox="0 0 24 24" fill="none" xmlns="http://www.w3.org/2000/svg">
<circle cx="12" cy="12" r="12" fill="white"/>
<path d="M19.8162 11.5417L16.0662 9.37503C15.8745 9.2667 15.6329 9.2667 15.4412 9.37503L11.6912 11.5417C11.6912 11.5417 11.6912 11.55 11.6829 11.55L8.24954 13.5334L5.12454 11.725V8.1167L8.24954 6.30836L11.3745 8.1167V9.0667C11.3745 9.40837 11.6579 9.6917 11.9995 9.6917C12.3412 9.6917 12.6245 9.40837 12.6245 9.0667V7.75003C12.6245 7.52503 12.5079 7.3167 12.3079 7.20836L8.55787 5.0417C8.3662 4.93337 8.12454 4.93337 7.93287 5.0417L4.18287 7.20836C3.9912 7.3167 3.86621 7.52503 3.86621 7.75003V12.0834C3.86621 12.3084 3.98287 12.5167 4.18287 12.625L7.93287 14.7917C8.03287 14.85 8.14121 14.875 8.24954 14.875C8.35787 14.875 8.46621 14.85 8.56621 14.7917L12.3162 12.625C12.3162 12.625 12.3162 12.6167 12.3245 12.6167L15.7579 10.6334L18.8829 12.4417V16.05L15.7579 17.8584L12.6329 16.05V15.0334C12.6329 14.6917 12.3495 14.4084 12.0079 14.4084C11.6662 14.4084 11.3829 14.6917 11.3829 15.0334V16.4084C11.3829 16.6334 11.4995 16.8417 11.6995 16.95L15.4495 19.1167C15.5495 19.175 15.6579 19.2 15.7662 19.2C15.8745 19.2 15.9829 19.175 16.0829 19.1167L19.8329 16.95C20.0245 16.8417 20.1495 16.6334 20.1495 16.4084V12.075C20.1245 11.8584 20.0079 11.65 19.8162 11.5417Z" fill="#794EDD"/>
<path d="M5.75 8.95794V10.8829C5.75 11.1829 5.90833 11.4579 6.16667 11.6079L7.83333 12.5663C8.09167 12.7163 8.40833 12.7163 8.66667 12.5663L10.3333 11.6079C10.5917 11.4579 10.75 11.1829 10.75 10.8829V8.95794C10.75 8.65794 10.5917 8.38294 10.3333 8.23294L8.66667 7.27461C8.40833 7.12461 8.09167 7.12461 7.83333 7.27461L6.16667 8.23294C5.90833 8.38294 5.75 8.65794 5.75 8.95794Z" fill="#794EDD"/>
<path d="M13.25 13.2919V15.2169C13.25 15.5169 13.4083 15.7919 13.6667 15.9419L15.3333 16.9003C15.5917 17.0503 15.9083 17.0503 16.1667 16.9003L17.8333 15.9419C18.0917 15.7919 18.25 15.5169 18.25 15.2169V13.2919C18.25 12.9919 18.0917 12.7169 17.8333 12.5669L16.1667 11.6086C15.9083 11.4586 15.5917 11.4586 15.3333 11.6086L13.6667 12.5669C13.4083 12.7169 13.25 12.9919 13.25 13.2919Z" fill="#794EDD"/>
</svg>
