<svg width="40" height="40" viewBox="0 0 40 40" fill="none" xmlns="http://www.w3.org/2000/svg">
<g clip-path="url(#clip0_3162_25533)">
<path d="M20 0.5C30.7691 0.5 39.5 9.23094 39.5 20C39.5 30.7691 30.7687 39.5 20 39.5C9.2313 39.5 0.5 30.7714 0.5 20C0.5 9.22856 9.22972 0.5 20 0.5Z" fill="#53AE94" stroke="white"/>
<path d="M22.4682 17.3355V14.3603H29.2718V9.82715H10.7454V14.3603H17.5498V17.3331C12.0198 17.5871 7.86182 18.6823 7.86182 19.9943C7.86182 21.3063 12.0218 22.4015 17.5498 22.6571V32.1872H22.4698V22.6564C27.9898 22.4016 32.1394 21.3071 32.1394 19.9963C32.1394 18.6855 27.9898 17.5911 22.4698 17.3363M22.4698 21.8491V21.8467C22.331 21.8555 21.6178 21.8984 20.0298 21.8984C18.7602 21.8984 17.867 21.8624 17.5522 21.846V21.8499C12.6666 21.6335 9.01982 20.7827 9.01982 19.7647C9.01982 18.7467 12.667 17.8971 17.5522 17.6803V21.0023C17.8722 21.0243 18.7874 21.0784 20.0506 21.0784C21.5678 21.0784 22.3306 21.0151 22.4706 21.0023V17.6803C27.3466 17.8975 30.985 18.7491 30.985 19.7635C30.985 20.7779 27.345 21.6299 22.4706 21.8471" fill="white"/>
</g>
<defs>
<clipPath id="clip0_3162_25533">
<rect width="40" height="40" fill="white"/>
</clipPath>
</defs>
</svg>
