<svg width="24" height="24" viewBox="0 0 24 24" fill="none" xmlns="http://www.w3.org/2000/svg">
<path d="M21 21H4C3.73478 21 3.48043 20.8946 3.29289 20.7071C3.10536 20.5196 3 20.2652 3 20V3H5V19H21V21ZM8.373 16L7 14.656L11.856 9.9C12.0399 9.72132 12.2861 9.62136 12.5425 9.62136C12.7989 9.62136 13.0451 9.72132 13.229 9.9L15.456 12.081L19.627 8L21 9.344L16.144 14.1C15.9601 14.2787 15.7139 14.3786 15.4575 14.3786C15.2011 14.3786 14.9549 14.2787 14.771 14.1L12.543 11.918L8.373 16Z" fill="#9C9FAF"/>
</svg>
