<svg width="16" height="16" viewBox="0 0 16 16" fill="none" xmlns="http://www.w3.org/2000/svg">
<path fill-rule="evenodd" clip-rule="evenodd" d="M4.66634 1.3335C4.29815 1.3335 3.99967 1.63197 3.99967 2.00016V2.66683H2.66634C1.92996 2.66683 1.33301 3.26378 1.33301 4.00016V13.3335C1.33301 14.0699 1.92996 14.6668 2.66634 14.6668H11.9997C12.7361 14.6668 13.333 14.0699 13.333 13.3335V12.0002H13.9997C14.3679 12.0002 14.6663 11.7017 14.6663 11.3335V2.00016C14.6663 1.63197 14.3679 1.3335 13.9997 1.3335H4.66634ZM11.9997 12.0002H4.66634C4.29815 12.0002 3.99967 11.7017 3.99967 11.3335V4.00016H2.66634V13.3335H11.9997V12.0002Z" fill="#6B6E88"/>
</svg>
