<svg width="24" height="24" viewBox="0 0 24 24" fill="none" xmlns="http://www.w3.org/2000/svg">
<path fill-rule="evenodd" clip-rule="evenodd" d="M9.40069 3.00195C10.5557 1.00195 13.4437 1.00195 14.5977 3.00195L21.9527 15.75C23.1067 17.75 21.6627 20.25 19.3537 20.25H4.64469C2.33569 20.25 0.89269 17.75 2.04669 15.75L9.39969 3.00195H9.40069ZM11.9997 8.24895C12.1986 8.24895 12.3894 8.32797 12.53 8.46862C12.6707 8.60928 12.7497 8.80004 12.7497 8.99895V12.749C12.7497 12.9479 12.6707 13.1386 12.53 13.2793C12.3894 13.4199 12.1986 13.499 11.9997 13.499C11.8008 13.499 11.61 13.4199 11.4694 13.2793C11.3287 13.1386 11.2497 12.9479 11.2497 12.749V8.99895C11.2497 8.80004 11.3287 8.60928 11.4694 8.46862C11.61 8.32797 11.8008 8.24895 11.9997 8.24895ZM11.9997 16.499C12.1986 16.499 12.3894 16.4199 12.53 16.2793C12.6707 16.1386 12.7497 15.9479 12.7497 15.749C12.7497 15.55 12.6707 15.3593 12.53 15.2186C12.3894 15.078 12.1986 14.999 11.9997 14.999C11.8008 14.999 11.61 15.078 11.4694 15.2186C11.3287 15.3593 11.2497 15.55 11.2497 15.749C11.2497 15.9479 11.3287 16.1386 11.4694 16.2793C11.61 16.4199 11.8008 16.499 11.9997 16.499Z" fill="#E14B4B"/>
</svg>
