<svg width="20" height="20" viewBox="0 0 20 20" fill="none" xmlns="http://www.w3.org/2000/svg">
<rect x="2.9165" y="2.91699" width="14.1667" height="14.1667" rx="3.33333" stroke="#9C9FAF" stroke-width="1.66667" stroke-linejoin="round"/>
<path d="M12.5 7.50033C12.9602 7.50033 13.3333 7.12723 13.3333 6.66699C13.3333 6.20675 12.9602 5.83366 12.5 5.83366V7.50033ZM9.16667 16.667C9.16667 17.1272 9.53976 17.5003 10 17.5003C10.4602 17.5003 10.8333 17.1272 10.8333 16.667H9.16667ZM12.5 5.83366H11.6667V7.50033H12.5V5.83366ZM9.16667 8.33366V16.667H10.8333V8.33366H9.16667ZM11.6667 5.83366C10.286 5.83366 9.16667 6.95295 9.16667 8.33366H10.8333C10.8333 7.87342 11.2064 7.50033 11.6667 7.50033V5.83366Z" fill="#9C9FAF"/>
<path d="M12.5 12.5003C12.9602 12.5003 13.3333 12.1272 13.3333 11.667C13.3333 11.2068 12.9602 10.8337 12.5 10.8337V12.5003ZM7.5 10.8337C7.03976 10.8337 6.66667 11.2068 6.66667 11.667C6.66667 12.1272 7.03976 12.5003 7.5 12.5003V10.8337ZM12.5 10.8337H7.5V12.5003H12.5V10.8337Z" fill="#9C9FAF"/>
</svg>
