<svg width="24" height="24" viewBox="0 0 24 24" fill="none" xmlns="http://www.w3.org/2000/svg">
<path d="M3 3.45C3 3.20147 3.20147 3 3.45 3H10.0136C10.4145 3 10.6153 3.48471 10.3318 3.7682L8.32278 5.77719L10.9947 8.44908L8.44908 10.9947L5.7772 8.32278L3.7682 10.3318C3.48471 10.6153 3 10.4145 3 10.0136V3.45Z" fill="#9C9FAF"/>
<path d="M8.44909 13.0053L5.77721 15.6772L3.7682 13.6682C3.48471 13.3847 3 13.5855 3 13.9864V20.55C3 20.7985 3.20147 21 3.45 21H10.0136C10.4145 21 10.6153 20.5153 10.3318 20.2318L8.32279 18.2228L10.9947 15.5509L8.44909 13.0053Z" fill="#9C9FAF"/>
<path d="M13.0053 15.5509L15.6772 18.2228L13.6682 20.2318C13.3847 20.5153 13.5855 21 13.9864 21H20.55C20.7985 21 21 20.7985 21 20.55V13.9864C21 13.5855 20.5153 13.3847 20.2318 13.6682L18.2228 15.6772L15.5509 13.0053L13.0053 15.5509Z" fill="#9C9FAF"/>
<path d="M15.5509 10.9947L18.2228 8.32278L20.2318 10.3318C20.5153 10.6153 21 10.4145 21 10.0136V3.45C21 3.20147 20.7985 3 20.55 3H13.9864C13.5855 3 13.3847 3.48471 13.6682 3.7682L15.6772 5.77719L13.0053 8.44908L15.5509 10.9947Z" fill="#9C9FAF"/>
</svg>
