<svg width="20" height="20" viewBox="0 0 20 20" fill="none" xmlns="http://www.w3.org/2000/svg">
<rect x="2.9165" y="2.91699" width="14.1667" height="14.1667" rx="1.66667" stroke="#9C9FAF" stroke-width="1.66667" stroke-linejoin="round"/>
<path d="M6.66675 8.75V13.75" stroke="#9C9FAF" stroke-width="1.66667" stroke-linecap="round" stroke-linejoin="round"/>
<path d="M9.1665 8.33301V13.7497" stroke="#9C9FAF" stroke-width="1.66667" stroke-linecap="round" stroke-linejoin="round"/>
<circle cx="6.66683" cy="6.25033" r="0.833333" fill="#9C9FAF"/>
<path d="M8.3496 10.6699C8.25934 11.1212 8.55202 11.5602 9.00332 11.6505C9.45462 11.7407 9.89364 11.4481 9.9839 10.9968L8.3496 10.6699ZM12.5001 13.75C12.5001 14.2102 12.8732 14.5833 13.3334 14.5833C13.7937 14.5833 14.1667 14.2102 14.1667 13.75H12.5001ZM9.9839 10.9968L10.1326 10.2532L8.4983 9.92638L8.3496 10.6699L9.9839 10.9968ZM10.9498 9.58333H11.6667V7.91667H10.9498V9.58333ZM12.5001 10.4167V13.75H14.1667V10.4167H12.5001ZM11.6667 9.58333C12.127 9.58333 12.5001 9.95643 12.5001 10.4167H14.1667C14.1667 9.03595 13.0475 7.91667 11.6667 7.91667V9.58333ZM10.1326 10.2532C10.2105 9.86372 10.5525 9.58333 10.9498 9.58333V7.91667C9.75805 7.91667 8.73201 8.75782 8.4983 9.92638L10.1326 10.2532Z" fill="#9C9FAF"/>
</svg>
