<svg width="17" height="16" viewBox="0 0 17 16" fill="none" xmlns="http://www.w3.org/2000/svg">
<path d="M1.83398 2.00016C1.83398 1.63197 2.13246 1.3335 2.50065 1.3335H9.16732C9.53551 1.3335 9.83398 1.63197 9.83398 2.00016V4.66682C9.83398 5.03501 9.53551 5.33349 9.16732 5.33349H6.50065C6.13246 5.33349 5.83398 5.63197 5.83398 6.00016V10.0002C5.83398 10.3683 6.13246 10.6668 6.50065 10.6668H9.16732C9.53551 10.6668 9.83398 10.9653 9.83398 11.3335V14.0002C9.83398 14.3684 9.53551 14.6668 9.16732 14.6668H2.50065C2.13246 14.6668 1.83398 14.3684 1.83398 14.0002V2.00016Z" fill="#6B6E88"/>
<path d="M12.2678 4.94347C11.8354 4.5728 11.1673 4.88007 11.1673 5.44964V6.66683H8.16732C7.79913 6.66683 7.50065 6.96531 7.50065 7.3335V8.66683C7.50065 9.03502 7.79913 9.3335 8.16732 9.3335H11.1673V10.5507C11.1673 11.1203 11.8354 11.4275 12.2678 11.0569L15.2435 8.50633C15.5539 8.24027 15.5539 7.76006 15.2435 7.49399L12.2678 4.94347Z" fill="#6B6E88"/>
</svg>
