<svg width="16" height="16" viewBox="0 0 16 16" fill="none" xmlns="http://www.w3.org/2000/svg">
<path fill-rule="evenodd" clip-rule="evenodd" d="M12.0007 6.66634C13.4734 6.66634 14.6673 5.47243 14.6673 3.99967C14.6673 2.52692 13.4734 1.33301 12.0007 1.33301C10.5279 1.33301 9.33399 2.52692 9.33399 3.99967C9.33399 4.22166 9.36111 4.4373 9.41222 4.64348L6.14449 6.4135C5.65866 5.75794 4.87928 5.33301 4.00065 5.33301C2.52789 5.33301 1.33398 6.52692 1.33398 7.99967C1.33398 9.47243 2.52789 10.6663 4.00065 10.6663C4.66111 10.6663 5.2655 10.4262 5.73127 10.0286L9.33406 11.9801C9.33401 11.9866 9.33399 11.9931 9.33399 11.9997C9.33399 13.4724 10.5279 14.6663 12.0007 14.6663C13.4734 14.6663 14.6673 13.4724 14.6673 11.9997C14.6673 10.5269 13.4734 9.33301 12.0007 9.33301C11.0166 9.33301 10.157 9.86605 9.69491 10.6592L6.50089 8.92906C6.60851 8.63967 6.66732 8.32654 6.66732 7.99967C6.66732 7.88405 6.65996 7.77014 6.64568 7.65839L10.0478 5.81558C10.5347 6.33896 11.2294 6.66634 12.0007 6.66634Z" fill="#6B6E88"/>
</svg>
