<svg width="20" height="20" viewBox="0 0 20 20" fill="none" xmlns="http://www.w3.org/2000/svg">
<path d="M16.4394 7.44304L15.9072 6.8018C15.6922 6.9802 15.581 7.25444 15.6108 7.53217L16.4394 7.44304ZM2.5 15.3656L2.32122 14.5517C1.97811 14.6271 1.7191 14.9095 1.67367 15.2578C1.62823 15.6062 1.80612 15.9456 2.11842 16.1065L2.5 15.3656ZM6.66667 13.3329L7.25592 13.9221C7.46641 13.7116 7.54864 13.4049 7.47164 13.1173C7.39464 12.8298 7.17011 12.6051 6.88261 12.528L6.66667 13.3329ZM3.56061 4.9489L4.24198 4.46913C4.06786 4.22184 3.77343 4.0883 3.47268 4.12022C3.17193 4.15213 2.91208 4.34447 2.79373 4.62279L3.56061 4.9489ZM10.0758 8.17661V9.00995C10.3483 9.00995 10.6036 8.87669 10.7594 8.65311C10.9152 8.42953 10.9519 8.14388 10.8576 7.8882L10.0758 8.17661ZM17.5 5.41617L18.3279 5.51116C18.3564 5.26312 18.2721 5.01538 18.0983 4.83611C17.9245 4.65685 17.6795 4.56496 17.4307 4.58572L17.5 5.41617ZM15.6108 7.53217C15.9523 10.7063 14.4282 13.2959 12.0063 14.6997C9.57641 16.1081 6.20418 16.3361 2.88158 14.6248L2.11842 16.1065C5.91703 18.063 9.89329 17.8508 12.8421 16.1416C15.7991 14.4277 17.6841 11.2221 17.2679 7.35391L15.6108 7.53217ZM2.67878 16.1795C4.44729 15.7911 6.27665 14.9014 7.25592 13.9221L6.07741 12.7436C5.39002 13.431 3.88605 14.208 2.32122 14.5517L2.67878 16.1795ZM6.88261 12.528C5.73195 12.2193 4.83087 11.0775 4.3471 9.51693C3.86623 7.96578 3.89565 6.29051 4.32748 5.275L2.79373 4.62279C2.16495 6.10143 2.19438 8.20148 2.75517 10.0104C3.31306 11.81 4.49532 13.6131 6.45073 14.1377L6.88261 12.528ZM2.87924 5.42867C4.11996 7.19074 5.55377 8.10272 6.8883 8.56126C8.20501 9.01368 9.38825 9.00995 10.0758 9.00995V7.34328C9.39963 7.34328 8.46165 7.33955 7.42988 6.98504C6.41593 6.63665 5.27398 5.93477 4.24198 4.46913L2.87924 5.42867ZM10.8576 7.8882C10.3097 6.40286 10.8472 5.33978 11.5727 4.91996C12.2783 4.51164 13.5219 4.51623 14.7895 5.96495L16.0438 4.86746C14.3947 2.98275 12.305 2.57061 10.7379 3.4774C9.19072 4.37268 8.5161 6.35652 9.29393 8.46503L10.8576 7.8882ZM16.9716 8.08428C17.4407 7.69497 18.1757 6.83748 18.3279 5.51116L16.6721 5.32117C16.5819 6.10756 16.1452 6.60426 15.9072 6.8018L16.9716 8.08428ZM17.4307 4.58572L15.3474 4.75956L15.486 6.42045L17.5693 6.24661L17.4307 4.58572Z" fill="#9C9FAF"/>
</svg>
