<svg width="20" height="20" viewBox="0 0 20 20" fill="none" xmlns="http://www.w3.org/2000/svg">
<path d="M1.66797 4.16634C1.66797 3.7061 2.04106 3.33301 2.5013 3.33301H15.8346C16.2949 3.33301 16.668 3.7061 16.668 4.16634V6.66634H15.0013C13.1604 6.66634 11.668 8.15873 11.668 9.99967C11.668 11.8406 13.1604 13.333 15.0013 13.333H16.668V15.833C16.668 16.2932 16.2949 16.6663 15.8346 16.6663H2.5013C2.04107 16.6663 1.66797 16.2932 1.66797 15.833V4.16634Z" fill="#467595"/>
<path d="M15.0013 7.49967C13.6206 7.49967 12.5013 8.61896 12.5013 9.99967C12.5013 11.3804 13.6206 12.4997 15.0013 12.4997H18.3346V7.49967H15.0013Z" fill="#467595"/>
</svg>
